<svg width="3319" height="794" viewBox="0 0 3319 794" fill="none" xmlns="http://www.w3.org/2000/svg">
<path d="M272.388 793.941L81.5948 595.153C28.4486 539.801 1.38698 469.014 0.0546227 397.931C-0.0934169 390.096 0.0546227 382.171 0.557957 374.365C4.4662 310.232 29.3961 247.28 75.0811 196.6C79.9368 191.16 85.059 185.896 90.418 180.752L142.706 130.722L274.254 267.801C310.346 305.412 309.161 360.971 271.5 397.015L150.196 270.639C79.6407 338.174 77.1536 454.23 144.808 524.691L275.231 660.587C311.323 698.198 310.079 757.927 272.388 794V793.941Z" fill="url(#paint0_linear_392_244)"/>
<path d="M270.612 0L461.376 198.788C514.522 254.17 541.613 324.927 542.945 396.039C543.093 403.875 542.945 411.799 542.442 419.605C538.534 483.739 513.604 546.69 467.919 597.37C463.063 602.811 457.941 608.074 452.582 613.219L400.294 663.249L268.746 526.169C232.654 488.559 233.839 433 271.5 396.956L392.804 523.331C463.359 455.797 465.846 339.741 398.192 269.279L267.769 133.383C231.677 95.772 232.95 36.0439 270.612 0Z" fill="url(#paint1_linear_392_244)"/>
<path d="M900.22 687.117C860.371 687.117 824.95 678.016 793.956 659.813C762.962 641.119 738.856 615.783 721.638 583.805C704.419 551.336 695.81 515.177 695.81 475.328C695.81 437.939 703.435 402.764 718.686 369.802C734.429 336.841 757.551 310.275 788.052 290.104C818.554 269.934 855.205 259.849 898.006 259.849C934.411 259.849 967.864 267.72 998.366 283.463C1029.36 299.206 1054.2 322.82 1072.9 354.305C1091.59 385.299 1100.94 423.18 1100.94 467.948V490.087H778.459C779.935 506.321 783.871 521.08 790.266 534.363C800.106 559.453 814.864 579.378 834.543 594.137C854.221 608.895 876.606 616.275 901.696 616.275C927.77 616.275 950.154 609.633 968.848 596.35C987.543 582.576 1001.07 565.111 1009.44 543.957H1094.3C1080.52 586.265 1057.16 620.703 1024.19 647.268C991.725 673.834 950.4 687.117 900.22 687.117ZM1016.81 424.41C1014.85 409.159 1010.67 396.122 1004.27 385.299C994.43 366.604 980.163 352.337 961.469 342.498C943.266 332.167 923.096 327.001 900.958 327.001C877.835 327.001 857.419 332.167 839.708 342.498C821.998 352.337 807.977 366.604 797.646 385.299C791.742 395.138 787.069 408.175 783.625 424.41H1016.81ZM1308.34 679H1242.66L1091.38 267.966H1179.2L1275.13 549.122L1373.28 267.966H1461.09L1308.34 679ZM1656.26 687.117C1616.42 687.117 1580.99 678.016 1550 659.813C1519.01 641.119 1494.9 615.783 1477.68 583.805C1460.46 551.336 1451.85 515.177 1451.85 475.328C1451.85 437.939 1459.48 402.764 1474.73 369.802C1490.47 336.841 1513.6 310.275 1544.1 290.104C1574.6 269.934 1611.25 259.849 1654.05 259.849C1690.46 259.849 1723.91 267.72 1754.41 283.463C1785.4 299.206 1810.25 322.82 1828.94 354.305C1847.64 385.299 1856.99 423.18 1856.99 467.948V490.087H1534.5C1535.98 506.321 1539.92 521.08 1546.31 534.363C1556.15 559.453 1570.91 579.378 1590.59 594.137C1610.27 608.895 1632.65 616.275 1657.74 616.275C1683.81 616.275 1706.2 609.633 1724.89 596.35C1743.59 582.576 1757.12 565.111 1765.48 543.957H1850.34C1836.57 586.265 1813.2 620.703 1780.24 647.268C1747.77 673.834 1706.44 687.117 1656.26 687.117ZM1772.86 424.41C1770.89 409.159 1766.71 396.122 1760.31 385.299C1750.48 366.604 1736.21 352.337 1717.51 342.498C1699.31 332.167 1679.14 327.001 1657 327.001C1633.88 327.001 1613.46 332.167 1595.75 342.498C1578.04 352.337 1564.02 366.604 1553.69 385.299C1547.79 395.138 1543.11 408.175 1539.67 424.41H1772.86ZM1892.97 679V267.966H1974.15V325.526C1992.35 301.419 2010.55 284.447 2028.75 274.608C2046.96 264.768 2067.62 259.849 2090.74 259.849C2152.24 259.849 2193.81 281.987 2215.45 326.264C2223.82 342.498 2228.98 359.225 2230.95 376.444C2232.92 393.17 2233.9 413.341 2233.9 436.955V679H2152.73V436.217C2152.73 394.4 2145.59 365.374 2131.33 349.14C2118.04 335.365 2098.86 328.477 2073.77 328.477C2043.76 328.477 2020.64 337.825 2004.4 356.519C1993.58 368.326 1985.71 384.315 1980.79 404.485C1976.36 424.656 1974.15 451.96 1974.15 486.397V679H1892.97ZM2309.28 679V335.119H2244.34V267.966H2309.28V224.427C2309.28 189.006 2318.63 162.194 2337.32 143.992C2356.02 125.297 2383.32 115.95 2419.23 115.95H2476.79V183.103H2438.42C2422.68 183.103 2410.87 187.284 2403 195.648C2395.13 204.011 2391.19 217.294 2391.19 235.497V267.966H2476.79V335.119H2391.19V679H2309.28ZM2622.17 679H2540.99V267.966H2622.17V679ZM2581.58 210.407C2566.82 210.407 2554.03 205.487 2543.21 195.648C2532.39 185.808 2526.97 173.509 2526.97 158.751C2526.97 143.992 2532.39 131.693 2543.21 121.853C2554.03 112.014 2566.82 107.095 2581.58 107.095C2596.83 107.095 2609.62 112.014 2619.95 121.853C2630.78 131.693 2636.19 143.992 2636.19 158.751C2636.19 173.509 2630.78 185.808 2619.95 195.648C2609.62 205.487 2596.83 210.407 2581.58 210.407ZM2674.96 679V267.966H2756.13V320.36C2772.86 298.714 2791.31 283.217 2811.48 273.87C2831.65 264.522 2855.02 259.849 2881.58 259.849H2889.7V339.546H2867.56C2834.6 339.546 2809.02 348.648 2790.82 366.85C2767.69 388.989 2756.13 425.394 2756.13 476.066V679H2674.96ZM3085.48 687.117C3045.63 687.117 3010.21 678.016 2979.22 659.813C2948.22 641.119 2924.12 615.783 2906.9 583.805C2889.68 551.336 2881.07 515.177 2881.07 475.328C2881.07 437.939 2888.7 402.764 2903.95 369.802C2919.69 336.841 2942.81 310.275 2973.31 290.104C3003.82 269.934 3040.47 259.849 3083.27 259.849C3119.67 259.849 3153.13 267.72 3183.63 283.463C3214.62 299.206 3239.46 322.82 3258.16 354.305C3276.85 385.299 3286.2 423.18 3286.2 467.948V490.087H2963.72C2965.2 506.321 2969.13 521.08 2975.53 534.363C2985.37 559.453 3000.13 579.378 3019.8 594.137C3039.48 608.895 3061.87 616.275 3086.96 616.275C3113.03 616.275 3135.41 609.633 3154.11 596.35C3172.8 582.576 3186.33 565.111 3194.7 543.957H3279.56C3265.78 586.265 3242.42 620.703 3209.46 647.268C3176.99 673.834 3135.66 687.117 3085.48 687.117ZM3202.08 424.41C3200.11 409.159 3195.93 396.122 3189.53 385.299C3179.69 366.604 3165.42 352.337 3146.73 342.498C3128.53 332.167 3108.36 327.001 3086.22 327.001C3063.1 327.001 3042.68 332.167 3024.97 342.498C3007.26 352.337 2993.24 366.604 2982.91 385.299C2977 395.138 2972.33 408.175 2968.89 424.41H3202.08Z" fill="#FFFFFF"/>
<defs>
<linearGradient id="paint0_linear_392_244" x1="271.5" y1="-195" x2="271.5" y2="1311" gradientUnits="userSpaceOnUse">
<stop stop-color="#C3D4FD"/>
<stop offset="0.407055" stop-color="#4377FA"/>
<stop offset="1" stop-color="#4377FA"/>
</linearGradient>
<linearGradient id="paint1_linear_392_244" x1="271.5" y1="-195" x2="271.5" y2="1311" gradientUnits="userSpaceOnUse">
<stop stop-color="#C3D4FD"/>
<stop offset="0.407055" stop-color="#4377FA"/>
<stop offset="1" stop-color="#4377FA"/>
</linearGradient>
</defs>
</svg>
